<?xml version="1.0" standalone="no"?>
<!DOCTYPE svg PUBLIC "-//W3C//DTD SVG 20010904//EN"
 "http://www.w3.org/TR/2001/REC-SVG-20010904/DTD/svg10.dtd">
<svg version="1.0" xmlns="http://www.w3.org/2000/svg"
 width="500.000000pt" height="500.000000pt" viewBox="0 0 500.000000 500.000000"
 preserveAspectRatio="xMidYMid meet">

<g transform="translate(0.000000,500.000000) scale(0.100000,-0.100000)"
fill="#000000" stroke="none">
<path d="M1115 3076 c-62 -28 -92 -92 -75 -155 8 -29 148 -174 712 -738 477
-476 712 -704 731 -709 79 -19 53 -41 770 674 368 367 678 680 690 696 27 38
28 110 2 149 -35 54 -115 73 -173 43 -15 -8 -301 -289 -637 -625 -335 -336
-614 -611 -620 -611 -5 0 -298 288 -650 640 -598 597 -643 640 -680 645 -24 3
-52 0 -70 -9z"/>
</g>
</svg>
