<?xml version="1.0" standalone="no"?>
<!DOCTYPE svg PUBLIC "-//W3C//DTD SVG 20010904//EN"
 "http://www.w3.org/TR/2001/REC-SVG-20010904/DTD/svg10.dtd">
<svg version="1.0" xmlns="http://www.w3.org/2000/svg"
 width="100.000000pt" height="100.000000pt" viewBox="0 0 100.000000 100.000000"
 preserveAspectRatio="xMidYMid meet">

<g transform="translate(0.000000,100.000000) scale(0.100000,-0.100000)"
fill="#000000" stroke="none">
<path d="M285 604 c158 -153 198 -180 238 -165 20 8 337 297 337 308 0 1 -163
3 -362 3 l-363 -1 150 -145z"/>
<path d="M784 612 l-111 -107 88 -80 c89 -81 102 -101 73 -112 -10 -4 -36 14
-77 53 -34 33 -74 70 -89 83 l-27 23 -42 -35 c-70 -61 -128 -61 -198 -1 l-41
35 -27 -20 c-16 -10 -55 -47 -88 -80 -58 -60 -95 -77 -95 -45 0 9 39 53 87 99
l88 82 -104 99 c-57 55 -107 101 -112 102 -5 2 -9 -100 -9 -227 l0 -231 400 0
400 0 0 235 c0 129 -1 235 -2 234 -2 0 -53 -48 -114 -107z"/>
</g>
</svg>
