<?xml version="1.0" standalone="no"?>
<!DOCTYPE svg PUBLIC "-//W3C//DTD SVG 20010904//EN"
 "http://www.w3.org/TR/2001/REC-SVG-20010904/DTD/svg10.dtd">
<svg version="1.0" xmlns="http://www.w3.org/2000/svg"
 width="100.000000pt" height="100.000000pt" viewBox="0 0 100.000000 100.000000"
 preserveAspectRatio="xMidYMid meet">

<g transform="translate(0.000000,100.000000) scale(0.100000,-0.100000)"
fill="#000000" stroke="none">
<path d="M200 873 c-55 -19 -103 -105 -103 -183 0 -102 84 -242 226 -376 78
-74 149 -116 267 -159 117 -41 193 -34 266 28 35 29 62 110 45 131 -5 6 -50
31 -100 56 l-92 44 -53 -57 -53 -58 -47 21 c-87 37 -177 113 -234 197 -29 41
-27 61 8 103 17 19 30 42 30 51 0 26 -71 190 -84 194 -30 9 -63 12 -76 8z"/>
</g>
</svg>
